<svg fill="none" stroke="#000" stroke-width="2" viewBox="0 0 347 347" xml:space="preserve" xmlns="http://www.w3.org/2000/svg"><path d="M5 5h337v337H5z"/><circle cx="298" cy="40" r="16"/><path fill="#ffffff" stroke="#000000" stroke-width="1.4" d="M20 97h41v41H20zm47 0h41v41H67zm48 0h41v41h-41zm47 0h41v41h-41zm47 0h41v41h-41zM20 145h41v41H20zm47 0h41v41H67zm48 0h41v41h-41zm47 0h41v41h-41zm47 0h41v41h-41zM20 192h41v41H20zm47 0h41v41H67zm48 0h41v41h-41zm47 0h41v41h-41zm47 0h41v41h-41zM20 240h41v41H20zm47 0h41v41H67zm48 0h41v41h-41zm47 0h41v41h-41zm47 0h41v41h-41zm75-144h41v41h-41zm1 47h41v41h-41zM20 287h41v41H20zm47 0h41v41H67zm48 0h41v41h-41zm47 0h41v41h-41zm47 0h41v41h-41zm76-98h41v41h-41zm0 47h41v41h-41zm0 47h41v41h-41z"/><path fill="#000000" stroke="#000000" stroke-width="1.4" d="M20 22h234v62H20z"/><text xml:space="preserve" style="-inkscape-font-specification:Arial" x="32" y="127" font-size="23.2" font-family="Arial" fill="#000000" stroke="#000000" stroke-width="1.4"><tspan x="32" y="127">S</tspan></text><text xml:space="preserve" style="-inkscape-font-specification:Arial" x="73" y="128" font-size="24.6" font-family="Arial" fill="#000000" stroke="#000000" stroke-width="1.4"><tspan x="73" y="128">12</tspan></text><text xml:space="preserve" style="-inkscape-font-specification:Arial" x="120" y="127" font-size="24.6" font-family="Arial" fill="#000000" stroke="#000000" stroke-width="1.4"><tspan x="120" y="127">12</tspan></text><text xml:space="preserve" style="-inkscape-font-specification:Arial" x="167" y="128" font-size="24.6" font-family="Arial" fill="#000000" stroke="#000000" stroke-width="1.4"><tspan x="167" y="128">12</tspan></text><text xml:space="preserve" style="-inkscape-font-specification:Arial" x="215" y="127" font-size="24.6" font-family="Arial" fill="#000000" stroke="#000000" stroke-width="1.4"><tspan x="215" y="127">12</tspan></text><text xml:space="preserve" style="-inkscape-font-specification:Arial" x="26" y="175" font-size="24.6" font-family="Arial" fill="#000000" stroke="#000000" stroke-width="1.4"><tspan x="26" y="175">34</tspan></text><text xml:space="preserve" style="-inkscape-font-specification:Arial" x="25" y="221" font-size="24.6" font-family="Arial" fill="#000000" stroke="#000000" stroke-width="1.4"><tspan x="25" y="221">34</tspan></text><text xml:space="preserve" style="-inkscape-font-specification:Arial" x="26" y="269" font-size="24.6" font-family="Arial" fill="#000000" stroke="#000000" stroke-width="1.4"><tspan x="26" y="269">34</tspan></text><text xml:space="preserve" style="-inkscape-font-specification:Arial" x="26" y="316" font-size="24.6" font-family="Arial" fill="#000000" stroke="#000000" stroke-width="1.4"><tspan x="26" y="316">34</tspan></text><text xml:space="preserve" style="-inkscape-font-specification:Arial" x="171" y="197" font-size="54.7" font-family="Arial" fill="#000000" stroke="#000000" stroke-width="1.4"><tspan x="171" y="197">*</tspan></text><text xml:space="preserve" style="-inkscape-font-specification:Arial" x="171" y="291" font-size="54.7" font-family="Arial" fill="#000000" stroke="#000000" stroke-width="1.4"><tspan x="171" y="291">*</tspan></text><text xml:space="preserve" style="-inkscape-font-specification:Arial" x="218" y="291" font-size="54.7" font-family="Arial" fill="#000000" stroke="#000000" stroke-width="1.4"><tspan x="218" y="291">*</tspan></text><text xml:space="preserve" style="-inkscape-font-specification:Arial" x="218" y="338" font-size="54.7" font-family="Arial" fill="#000000" stroke="#000000" stroke-width="1.4"><tspan x="218" y="338">*</tspan></text><text xml:space="preserve" style="-inkscape-font-specification:Arial" x="171" y="339" font-size="54.7" font-family="Arial" fill="#000000" stroke="#000000" stroke-width="1.4"><tspan x="171" y="339">*</tspan></text><text xml:space="preserve" style="-inkscape-font-specification:Arial" x="125" y="340" font-size="54.7" font-family="Arial" fill="#000000" stroke="#000000" stroke-width="1.4"><tspan x="125" y="340">*</tspan></text><text xml:space="preserve" style="-inkscape-font-specification:Arial" x="77" y="339" font-size="54.7" font-family="Arial" fill="#000000" stroke="#000000" stroke-width="1.4"><tspan x="77" y="339">*</tspan></text><text xml:space="preserve" style="-inkscape-font-specification:Arial" x="77" y="291" font-size="54.7" font-family="Arial" fill="#000000" stroke="#000000" stroke-width="1.4"><tspan x="77" y="291">*</tspan></text><text xml:space="preserve" style="-inkscape-font-specification:Arial" x="79" y="178" font-size="32.8" font-family="Arial" fill="#000000" stroke="#000000" stroke-width="1.4"><tspan x="79" y="178">0</tspan></text><text xml:space="preserve" style="-inkscape-font-specification:Arial" x="126" y="177" font-size="32.8" font-family="Arial" fill="#000000" stroke="#000000" stroke-width="1.4"><tspan x="126" y="177">0</tspan></text><text xml:space="preserve" style="-inkscape-font-specification:Arial" x="220" y="225" font-size="32.8" font-family="Arial" fill="#000000" stroke="#000000" stroke-width="1.4"><tspan x="220" y="225">0</tspan></text><text xml:space="preserve" style="-inkscape-font-specification:Arial" x="126" y="270" font-size="32.8" font-family="Arial" fill="#000000" stroke="#000000" stroke-width="1.4"><tspan x="126" y="270">0</tspan></text><text xml:space="preserve" style="-inkscape-font-specification:Arial" x="77" y="226" font-size="38.3" font-family="Arial" fill="#000000" stroke="#000000" stroke-width="1.4"><tspan x="77" y="226">1</tspan></text><text xml:space="preserve" style="-inkscape-font-specification:Arial" x="124" y="226" font-size="38.3" font-family="Arial" fill="#000000" stroke="#000000" stroke-width="1.4"><tspan x="124" y="226">1</tspan></text><text xml:space="preserve" style="-inkscape-font-specification:Arial" x="170" y="226" font-size="38.3" font-family="Arial" fill="#000000" stroke="#000000" stroke-width="1.4"><tspan x="170" y="226">1</tspan></text><text xml:space="preserve" style="-inkscape-font-specification:Arial" x="217" y="179" font-size="38.3" font-family="Arial" fill="#000000" stroke="#000000" stroke-width="1.4"><tspan x="217" y="179">1</tspan></text><text xml:space="preserve" style="-inkscape-font-specification:Arial" x="299" y="125" font-size="19.1" font-family="Arial" fill="#000000" stroke="#000000" stroke-width="1.4"><tspan x="299" y="125">1</tspan></text><text xml:space="preserve" style="-inkscape-font-specification:Arial" x="299" y="170" font-size="19.1" font-family="Arial" fill="#000000" stroke="#000000" stroke-width="1.4"><tspan x="299" y="170">2</tspan></text><text xml:space="preserve" style="-inkscape-font-specification:Arial" x="300" y="219" font-size="19.1" font-family="Arial" fill="#000000" stroke="#000000" stroke-width="1.4"><tspan x="300" y="219">3</tspan></text><text xml:space="preserve" style="-inkscape-font-specification:Arial" x="300" y="265" font-size="19.1" font-family="Arial" fill="#000000" stroke="#000000" stroke-width="1.4"><tspan x="300" y="265">4</tspan></text><text xml:space="preserve" style="-inkscape-font-specification:Arial" x="45" y="45" transform="scale(.7 1.5)" font-size="28.7" font-family="Arial" fill="#ffffff" stroke="#ffffff" stroke-width="2.1" stroke-opacity="0"><tspan x="45" y="45">23+124+3</tspan></text><text xml:space="preserve" style="-inkscape-font-specification:Arial" x="40" y="30" font-size="19.1" font-family="Arial" fill="#ffffff" stroke="#ffffff" stroke-width="1.4" stroke-opacity="0"><tspan x="40" y="30">_</tspan></text><text xml:space="preserve" style="-inkscape-font-specification:Arial" x="27" y="197" font-size="19.1" font-family="Arial" fill="#000000" stroke="#000000" stroke-width="1.4" stroke-opacity="0"><tspan x="27" y="197">_</tspan></text><text xml:space="preserve" style="-inkscape-font-specification:Arial" x="42" y="292" font-size="19.1" font-family="Arial" fill="#000000" stroke="#000000" stroke-width="1.4" stroke-opacity="0"><tspan x="42" y="292">_</tspan></text><text xml:space="preserve" style="-inkscape-font-specification:Arial" x="122" y="103" font-size="19.1" font-family="Arial" fill="#000000" stroke="#000000" stroke-width="1.4" stroke-opacity="0"><tspan x="122" y="103">_</tspan></text><text xml:space="preserve" style="-inkscape-font-specification:Arial" x="232" y="103" font-size="19.1" font-family="Arial" fill="#000000" stroke="#000000" stroke-width="1.4" stroke-opacity="0"><tspan x="232" y="103">_</tspan></text><text xml:space="preserve" style="-inkscape-font-specification:Arial" x="91" y="103" font-size="19.1" font-family="Arial" fill="#000000" stroke="#000000" stroke-width="1.4" stroke-opacity="0"><tspan x="91" y="103">_</tspan></text><text xml:space="preserve" style="-inkscape-font-specification:Arial" x="77" y="103" font-size="19.1" font-family="Arial" fill="#000000" stroke="#000000" stroke-width="1.4" stroke-opacity="0"><tspan x="77" y="103">_</tspan></text><text xml:space="preserve" style="-inkscape-font-specification:Arial" x="27" y="150" font-size="19.1" font-family="Arial" fill="#000000" stroke="#000000" stroke-width="1.4" stroke-opacity="0"><tspan x="27" y="150">_</tspan></text><text xml:space="preserve" style="-inkscape-font-specification:Arial" x="42" y="150" font-size="19.1" font-family="Arial" fill="#000000" stroke="#000000" stroke-width="1.4" stroke-opacity="0"><tspan x="42" y="150">_</tspan></text><text xml:space="preserve" style="-inkscape-font-specification:Arial" x="298" y="311" font-size="19.1" font-family="Arial" fill="#000000" stroke="#000000" stroke-width="1.4"><tspan x="298" y="311">D</tspan></text></svg>